<svg xmlns="http://www.w3.org/2000/svg" viewBox="0 0 955.18 175.87"><defs><style>.cls-1{fill:#9ed7f2;}.cls-2{fill:#fff;}.cls-3{fill:#e7f6fd;}.cls-4,.cls-5{fill:#d6e8f2;}.cls-5{opacity:0.3;}</style></defs><title>Asset 1clouds</title><g id="Layer_2" data-name="Layer 2"><g id="OBJECTS"><path class="cls-1" d="M500,98.54c-.33,0-.66,0-1,0a24,24,0,0,0-12.92-15,32.23,32.23,0,0,0-44.07-25.15,23.85,23.85,0,0,0-37.47-13.84,31.61,31.61,0,0,0-55.31,9.89,23.89,23.89,0,0,0-28.23,36.6,23.9,23.9,0,0,0-20.57,19.38l-.41,0A10,10,0,1,0,305,129.29a23.75,23.75,0,0,0,24.41,8.84,51.05,51.05,0,0,0,81,2.91,31.6,31.6,0,0,0,56.84-13.53,23.82,23.82,0,0,0,29.19-9.59A10,10,0,1,0,500,98.54Z"/><path class="cls-2" d="M301.5,106.75H509.88A10,10,0,0,0,500,98.54c-.33,0-.66,0-1,0a24,24,0,0,0-12.92-15,32.23,32.23,0,0,0-44.07-25.15,23.85,23.85,0,0,0-37.47-13.84,31.61,31.61,0,0,0-55.31,9.89,23.89,23.89,0,0,0-28.23,36.6A23.89,23.89,0,0,0,301.5,106.75Z"/><path class="cls-3" d="M414.77,98.47A13.17,13.17,0,1,1,401.6,85.3,13.17,13.17,0,0,1,414.77,98.47Z"/><circle class="cls-3" cx="390.32" cy="113.52" r="15.06" transform="translate(-13.65 158.78) rotate(-22.61)"/><path class="cls-3" d="M501,93.88A15.8,15.8,0,0,0,481,95a18.92,18.92,0,0,0-23.76-9.23,15.89,15.89,0,0,0-26.67,3.64,27.11,27.11,0,0,0-6.52-2.48,15.88,15.88,0,0,0-30.27-6.06,19.78,19.78,0,0,0-17.67-4.22,27.38,27.38,0,0,0-43.23-2.7A15.89,15.89,0,0,0,307.36,92.8a20,20,0,0,0-8.44,11,15.91,15.91,0,0,0,3.12,31.5,15.69,15.69,0,0,0,2.67-.25,15.89,15.89,0,0,0,30.51,3.48c.37,0,.74.06,1.11.06a15.86,15.86,0,0,0,8.54-2.5A23,23,0,0,0,386,115.17a20.14,20.14,0,0,0,4.37-1.71v.06a27.38,27.38,0,1,0,54.75,0c0-.56,0-1.12-.05-1.68h.05a14.94,14.94,0,0,0,1.91-.13,19,19,0,0,0,31.57,4,15.91,15.91,0,0,0,11.09,6.8A15.89,15.89,0,1,0,501,93.88Z"/><path class="cls-4" d="M379.24,104.41a14.28,14.28,0,0,1-4.42,9.24,13.52,13.52,0,0,1-18.48,0,14.21,14.21,0,0,1-4.26-8.3c.16-.16.36-.28.51-.45a12.31,12.31,0,0,0,2.57-4.18,11.5,11.5,0,0,0,.61-4.78,12.71,12.71,0,0,1-3.93,8.21,12,12,0,0,1-16.42,0,12.77,12.77,0,0,1-3.94-8.21,11.67,11.67,0,0,0,.62,4.78,12.59,12.59,0,0,0,2.56,4.19,12.21,12.21,0,0,0,17.21.62,13.81,13.81,0,0,0,.73,4.26,14,14,0,0,0,2.89,4.71,13.84,13.84,0,0,0,20.17,0,14,14,0,0,0,2.89-4.71A12.86,12.86,0,0,0,379.24,104.41Z"/><path class="cls-4" d="M433.07,101.56a13,13,0,0,1-.68,5.37,14.17,14.17,0,0,1-2.89,4.71,13.86,13.86,0,0,1-20.18,0,14,14,0,0,1-2.89-4.71,13,13,0,0,1-.69-5.37,14.31,14.31,0,0,0,4.43,9.23,13.53,13.53,0,0,0,18.48,0A14.3,14.3,0,0,0,433.07,101.56Z"/><path class="cls-1" d="M948.47,106a22.24,22.24,0,0,0-17.57-23.2,31.09,31.09,0,1,0-59.29-18.31A33.53,33.53,0,0,0,834.89,51a31.08,31.08,0,0,0-58.64-5.28A22.19,22.19,0,0,0,739.59,60,50.62,50.62,0,0,0,725.31,77.4a24.79,24.79,0,1,0,2.6,49.5,50.64,50.64,0,0,0,28.61,21.61,31.08,31.08,0,0,0,58.29,10.89c.9.14,1.82.26,2.75.32a30.91,30.91,0,0,0,21.83-7.07,31,31,0,0,0,43,2.45,31,31,0,0,0,46.73-28.47A22.24,22.24,0,0,0,948.47,106Z"/><path class="cls-1" d="M948.47,106a22.24,22.24,0,0,0-17.57-23.2,31.09,31.09,0,1,0-59.29-18.31A33.53,33.53,0,0,0,834.89,51a31.08,31.08,0,0,0-58.64-5.28A22.19,22.19,0,0,0,739.59,60,50.62,50.62,0,0,0,725.31,77.4a24.79,24.79,0,1,0,2.6,49.5,50.64,50.64,0,0,0,28.61,21.61,31.08,31.08,0,0,0,58.29,10.89c.9.14,1.82.26,2.75.32a30.91,30.91,0,0,0,21.83-7.07,31,31,0,0,0,43,2.45,31,31,0,0,0,46.73-28.47A22.24,22.24,0,0,0,948.47,106Z"/><path class="cls-2" d="M946.65,113.5A22.22,22.22,0,0,0,930.9,82.84a31.09,31.09,0,1,0-59.29-18.31A33.53,33.53,0,0,0,834.89,51a31.08,31.08,0,0,0-58.64-5.28A22.19,22.19,0,0,0,739.59,60,50.62,50.62,0,0,0,725.31,77.4,24.81,24.81,0,0,0,701.8,97.29Z"/><path class="cls-3" d="M938.59,86.89a17.77,17.77,0,0,0-6.62.83A27.63,27.63,0,0,0,886.65,72.5a27.61,27.61,0,0,0-34.4,3.92,19.48,19.48,0,0,0-37.43,6.22,19.75,19.75,0,0,0,.09,3.36,20.1,20.1,0,0,0-27.36-3,22,22,0,0,0-23.07-8,22.12,22.12,0,0,0-40.08,9.36,27.64,27.64,0,0,0-3.07,55.19,25.4,25.4,0,0,0,2.89,0,27.59,27.59,0,0,0,42.9,10.88,22.1,22.1,0,0,0,32.24-17.66,15.78,15.78,0,0,0,28.25-8.6,15.2,15.2,0,0,0,0-1.65l.21-.2a20.1,20.1,0,0,0,32-1.55c.65.31,1.3.61,2,.87a20.14,20.14,0,0,0,38.65-1.08c.85.13,1.71.24,2.59.3a27.56,27.56,0,0,0,19.57-6.41,17.75,17.75,0,1,0,15.94-27.56Z"/><path class="cls-4" d="M863.45,98.52A7.81,7.81,0,0,1,862.3,103a12.13,12.13,0,0,1-3.82,3.71,23,23,0,0,1-24.87-1.64,12.21,12.21,0,0,1-3.3-4.19,7.68,7.68,0,0,1-.55-4.57,11.13,11.13,0,0,0,4.94,8.11,22.75,22.75,0,0,0,22.78,1.51A11.17,11.17,0,0,0,863.45,98.52Z"/><path class="cls-4" d="M780.58,117.49a10.06,10.06,0,0,1-1.33,5.41,14.51,14.51,0,0,1-4.33,4.53c-3.71,2.58-9,3.86-14.31,3.51a23.1,23.1,0,0,1-13.73-5.36,14.68,14.68,0,0,1-3.7-5.07,10.12,10.12,0,0,1-.59-5.54,13.58,13.58,0,0,0,5.53,9.82,24.13,24.13,0,0,0,25.68,1.7A13.56,13.56,0,0,0,780.58,117.49Z"/><path class="cls-4" d="M918.64,95.56a11.21,11.21,0,0,1-1,4.86,12.79,12.79,0,0,1-3.09,4.11,14.16,14.16,0,0,1-19.64-1.3,12.75,12.75,0,0,1-2.52-4.49A11.07,11.07,0,0,1,892,93.8a12.79,12.79,0,0,0,3.75,8.71,13.85,13.85,0,0,0,18,1.19A12.78,12.78,0,0,0,918.64,95.56Z"/><path class="cls-1" d="M196.05,133.24a5.14,5.14,0,0,0-.55.06A16.59,16.59,0,0,0,171.22,123a29.28,29.28,0,0,0-5.95-7.34,16.6,16.6,0,0,0-23.21-21.79,29.17,29.17,0,0,0-48.47-3.6,29.22,29.22,0,0,0-38.86,18.81A29.2,29.2,0,0,0,36.28,123a16.58,16.58,0,0,0-22.66,6.25,9.27,9.27,0,1,0,0,16.38,16.58,16.58,0,0,0,22.66,6.25,29.15,29.15,0,0,0,46.84,5.34,29.17,29.17,0,0,0,42.09.92,29.2,29.2,0,0,0,46-6.26,16.56,16.56,0,0,0,20.52-3.3,8.3,8.3,0,1,0,4.31-15.38Z"/><path class="cls-2" d="M195.49,133.27A16.58,16.58,0,0,0,171.22,123a29.28,29.28,0,0,0-5.95-7.34,16.6,16.6,0,0,0-23.21-21.79,29.17,29.17,0,0,0-48.47-3.6,29.22,29.22,0,0,0-38.86,18.81A29.2,29.2,0,0,0,36.28,123a16.58,16.58,0,0,0-22.66,6.25,9.25,9.25,0,0,0-4.35-1.08"/><path class="cls-3" d="M197.66,138.21c-.12,0-.23,0-.35,0a10.57,10.57,0,0,0-15.45-6.53,18.73,18.73,0,0,0-3.78-4.67,10.44,10.44,0,0,0,1.13-4.73,10.58,10.58,0,0,0-10.58-10.58,10.45,10.45,0,0,0-5.32,1.45,18.57,18.57,0,0,0-30.85-2.29,18.56,18.56,0,0,0-24.73,12,17.51,17.51,0,0,0-2.23.71,13.79,13.79,0,0,0-24.58.58l-.07-.08a7.94,7.94,0,0,0-11.1-10.42,14,14,0,0,0-23.18-1.72,14,14,0,0,0-18.59,9,14,14,0,0,0-8.82,6.65,7.94,7.94,0,0,0-10.84,3,4.38,4.38,0,0,0-2.07-.52,4.44,4.44,0,1,0,0,8.87,4.5,4.5,0,0,0,2.07-.51,7.92,7.92,0,0,0,10.84,3A13.94,13.94,0,0,0,41.56,144a14,14,0,0,0,20.13.44,14,14,0,0,0,9.86,4.07,13.82,13.82,0,0,0,6.67-1.72,5.61,5.61,0,0,0,.59.06,5.82,5.82,0,0,0,2.76-.69,10.54,10.54,0,0,0,14.42,4,18.55,18.55,0,0,0,29.81,3.4,18.56,18.56,0,0,0,26.79.58,18.56,18.56,0,0,0,29.27-4,10.53,10.53,0,0,0,13.06-2.1,5.28,5.28,0,1,0,2.74-9.79Z"/><path class="cls-4" d="M86.26,127.14a6.2,6.2,0,0,1-.58,3.33,8.82,8.82,0,0,1-2.45,2.92,14.79,14.79,0,0,1-17,0,8.9,8.9,0,0,1-2.44-2.92,6.11,6.11,0,0,1-.58-3.33,8.24,8.24,0,0,0,3.74,5.72,14.61,14.61,0,0,0,15.61,0A8.21,8.21,0,0,0,86.26,127.14Z"/><path class="cls-4" d="M156.83,120.75a6.11,6.11,0,0,1-.58,3.33,8.75,8.75,0,0,1-2.44,2.91,14.79,14.79,0,0,1-17,0,8.91,8.91,0,0,1-2.45-2.91,6.2,6.2,0,0,1-.58-3.33,8.26,8.26,0,0,0,3.74,5.72,14.61,14.61,0,0,0,15.61,0A8.2,8.2,0,0,0,156.83,120.75Z"/><path class="cls-4" d="M127.11,137.37a6.07,6.07,0,0,1-.58,3.32,8.78,8.78,0,0,1-2.44,2.92,14.79,14.79,0,0,1-17,0,8.94,8.94,0,0,1-2.45-2.92,6.17,6.17,0,0,1-.58-3.32,8.24,8.24,0,0,0,3.74,5.71,14.63,14.63,0,0,0,15.61,0A8.22,8.22,0,0,0,127.11,137.37Z"/><path class="cls-1" d="M801.15,101.61a15.27,15.27,0,0,0-6.85,1.63,22.8,22.8,0,0,0-24.48-8.48A22.89,22.89,0,0,0,737,79.09,36.42,36.42,0,0,0,701.4,34.24a36.36,36.36,0,0,0-10.18,1.47,36.49,36.49,0,0,0-62.4-21,54.4,54.4,0,0,0-89.74,25.67,37,37,0,0,0-3.81-.2,36.49,36.49,0,0,0-32.83,20.58A22.83,22.83,0,0,0,471.85,79a22.91,22.91,0,0,0-34.06,15,22.8,22.8,0,0,0-24.48,8.48,15.26,15.26,0,1,0,0,27.23A22.88,22.88,0,0,0,444.72,135a22.89,22.89,0,0,0,35.6,6.72,22.91,22.91,0,0,0,39.31,2.65,22.84,22.84,0,0,0,28-6.33,22.86,22.86,0,0,0,30.84,17.48,54.43,54.43,0,0,0,85.25-13A22.81,22.81,0,0,0,688,145.12a22.91,22.91,0,0,0,39.32-2.65,22.88,22.88,0,0,0,35.59-6.72,22.88,22.88,0,0,0,31.41-5.28,15.24,15.24,0,1,0,6.85-28.86Z"/><path class="cls-2" d="M816.36,116.09a15.22,15.22,0,0,0-22.06-12.85,22.8,22.8,0,0,0-24.48-8.48A22.89,22.89,0,0,0,737,79.09,36.42,36.42,0,0,0,701.4,34.24a36.36,36.36,0,0,0-10.18,1.47,36.49,36.49,0,0,0-62.4-21,54.4,54.4,0,0,0-89.74,25.67,37,37,0,0,0-3.81-.2,36.49,36.49,0,0,0-32.83,20.58A22.83,22.83,0,0,0,471.85,79a22.91,22.91,0,0,0-34.06,15,22.8,22.8,0,0,0-24.48,8.48,15.24,15.24,0,0,0-22.1,13.62H816.36Z"/><path class="cls-3" d="M812.64,108.32c-.19,0-.37.05-.56.06a18.29,18.29,0,0,0-27.76-10.92,28.41,28.41,0,0,0-41.09-13A16.9,16.9,0,0,0,721.6,71.37a28.46,28.46,0,0,0-53.72,3.54,20.31,20.31,0,0,0-7-6.52,22.62,22.62,0,0,0-22.48-25A22.58,22.58,0,0,0,616.9,59.07a28.34,28.34,0,0,0-15.36,5,28.46,28.46,0,0,0-51,2.18,22.56,22.56,0,0,0-27.84,5,22.49,22.49,0,0,0-28.25,6.33,28.4,28.4,0,0,0-44.39,15.11,22.47,22.47,0,0,0-22,3.72,22.59,22.59,0,1,0-14.28,40.1l.27,0a14.27,14.27,0,0,0,28,0l.28,0a22.53,22.53,0,0,0,9.67-2.2,22.56,22.56,0,0,0,37.63,2.16,14,14,0,0,0,18.56-11.33h.22a28.41,28.41,0,0,0,40.86,5.9,14.18,14.18,0,0,0,24.08,3,28.43,28.43,0,0,0,24.43,13.91,29,29,0,0,0,4.7-.42,22.58,22.58,0,0,0,43.67-8.1c0-.4,0-.78-.06-1.18.31-.09.63-.17.94-.27a28.44,28.44,0,0,0,50.64-4.55,28.46,28.46,0,0,0,9.77,4.87,28.45,28.45,0,0,0,54.13-1.36,28.38,28.38,0,0,0,19.48-11.43A18.29,18.29,0,0,0,802.86,129a12.67,12.67,0,1,0,9.78-20.7Z"/><path class="cls-4" d="M588.46,85.3a12.32,12.32,0,0,1-.65,5.09,13.38,13.38,0,0,1-2.74,4.46,13.13,13.13,0,0,1-19.11,0,13.42,13.42,0,0,1-2.74-4.47,12.32,12.32,0,0,1-.65-5.09,13.62,13.62,0,0,0,4.19,8.75,12.83,12.83,0,0,0,17.51,0A13.62,13.62,0,0,0,588.46,85.3Z"/><path class="cls-4" d="M638.82,106.41a16.7,16.7,0,0,1-.88,6.88,18.2,18.2,0,0,1-3.7,6,17.71,17.71,0,0,1-25.81,0,18.2,18.2,0,0,1-3.7-6,16.7,16.7,0,0,1-.88-6.88,18.39,18.39,0,0,0,5.67,11.82,17.29,17.29,0,0,0,23.64,0A18.3,18.3,0,0,0,638.82,106.41Z"/><path class="cls-4" d="M735.16,100.21a16.67,16.67,0,0,1-.88,6.87,18.1,18.1,0,0,1-3.7,6,17.71,17.71,0,0,1-25.81,0,18,18,0,0,1-3.7-6,16.84,16.84,0,0,1-.88-6.87A18.36,18.36,0,0,0,705.86,112a17.31,17.31,0,0,0,23.64,0A18.33,18.33,0,0,0,735.16,100.21Z"/><path class="cls-4" d="M505.23,93.48a12.13,12.13,0,0,1-.65,5,12.87,12.87,0,0,1-21.46,4.38,13.16,13.16,0,0,1-2.69-4.38,12.29,12.29,0,0,1-.64-5,13.39,13.39,0,0,0,4.12,8.6,12.6,12.6,0,0,0,17.2,0A13.39,13.39,0,0,0,505.23,93.48Z"/><path class="cls-5" d="M900,120.05l-.13-.18,0,0c-.12-.16-.24-.31-.37-.46l-.06-.07c-.12-.14-.25-.27-.38-.4l-.09-.09-.26-.23a8.4,8.4,0,0,0-7.64-4.91,8.29,8.29,0,0,0-3.72.88,9.89,9.89,0,0,0-1.39-.57,13,13,0,0,0-10.72-6.84,11.07,11.07,0,0,0-1.3-.73,9.91,9.91,0,0,0-1.68-.61,10.43,10.43,0,0,0-2.75-.37h0a10.35,10.35,0,0,0-3.22.53,7.9,7.9,0,0,0-1.23-1.35c0-.28.06-.57.08-.86s0-.65,0-1A16.78,16.78,0,0,0,848.37,86c-.41,0-.81,0-1.21.05a15.87,15.87,0,0,0-3.47.63,16.79,16.79,0,0,0-21.72-14,16.31,16.31,0,0,0-1.57.58A16.79,16.79,0,0,0,815,77a25.29,25.29,0,0,0-2.67-2.17,24.85,24.85,0,0,0-12-4.46c-.4,0-.8-.07-1.21-.09s-.82,0-1.23,0h0a24.83,24.83,0,0,0-8.26,1.4A25.81,25.81,0,0,0,786,73.31c-.59.33-1.17.68-1.73,1a25,25,0,0,0-2.47,1.87,25.39,25.39,0,0,0-2.84,2.84,25,25,0,0,0-2.84,4.06,24.44,24.44,0,0,0-2.3,5.67,17,17,0,0,0-1.76-.09h0a17.3,17.3,0,0,0-3.62.39c-.39.09-.77.19-1.15.3a16.59,16.59,0,0,0-2.2.83c-.35.16-.7.33-1,.52A17,17,0,0,0,757,98.16a10.14,10.14,0,0,0-1.76-.48,10.49,10.49,0,0,0-1.87-.17h0a11.11,11.11,0,0,0-1.94.17,10.54,10.54,0,0,0-5,2.43,9.57,9.57,0,0,0-.95,1,10.19,10.19,0,0,0-.64.8,12.28,12.28,0,0,0-.92,1.52,12.91,12.91,0,0,0-5.12,1.77,9.39,9.39,0,0,0-1.19-.09,10.54,10.54,0,0,0-9.79,6.64c-.09.21-.16.43-.23.65a10.33,10.33,0,0,0-2.35.72c-.24,0-.48,0-.73,0a10.46,10.46,0,0,0-3.13.5,10.24,10.24,0,0,0-5.1-1.35,10.38,10.38,0,0,0-10.38,10.38c0,.17,0,.34,0,.51s0,.33,0,.5h0a7,7,0,0,0,1.41,4.2,10.37,10.37,0,0,0,9,5.17h.12a6.56,6.56,0,0,0,12.87,0l0,0h.09a9.36,9.36,0,0,0,1.41-.11,10.51,10.51,0,0,0,9.05,5.16,10.37,10.37,0,0,0,4.45-1,10.21,10.21,0,0,0,3-.9,10.51,10.51,0,0,0,17.63.46,10.49,10.49,0,0,0,12.87-2.91,10.5,10.5,0,0,0,14.17,8,25,25,0,0,0,37.25-3,13,13,0,0,0,13.24-1.5,10.47,10.47,0,0,0,13.6,3,12.92,12.92,0,0,0,7.5,2.38,13.07,13.07,0,0,0,12.23-8.48,9.53,9.53,0,0,0,.62-.94l.81-.14a10.48,10.48,0,0,0,13.65-2.48l.25,0c.2,0,.41,0,.61,0a6.86,6.86,0,0,0,2.53.48,7,7,0,0,0,2-.29,5.75,5.75,0,0,0,3.27,1,5.83,5.83,0,0,0,.54-11.64Z"/><path class="cls-1" d="M323.65,110.94a21.38,21.38,0,0,0-7.23,1.27,33.71,33.71,0,0,0-26.56-12.95c-.77,0-1.53.07-2.29.12A45.42,45.42,0,0,0,200,104c-.34,0-.68-.06-1-.06a21.51,21.51,0,0,0-20,29.43,14.14,14.14,0,0,0,3.73,27.79,14,14,0,0,0,5.42-1.09,20.25,20.25,0,0,0,39-4.51,45.19,45.19,0,0,0,36.79-1A33.74,33.74,0,0,0,317.1,153a21.53,21.53,0,1,0,6.55-42Z"/><path class="cls-2" d="M178.9,133.39H345.13c0-.3.05-.61.05-.92a21.48,21.48,0,0,0-28.76-20.26,33.71,33.71,0,0,0-26.56-12.95c-.77,0-1.53.07-2.29.12A45.42,45.42,0,0,0,200,104c-.34,0-.68-.06-1-.06a21.51,21.51,0,0,0-20,29.43Z"/><circle class="cls-3" cx="219.04" cy="129.43" r="12.09"/><path class="cls-3" d="M341.57,120.26a13.38,13.38,0,0,0-7.49,2.28,17.05,17.05,0,0,0-18.59-2.06,17.11,17.11,0,0,0-15.06-9,16.72,16.72,0,0,0-4,.5A26.63,26.63,0,0,0,259,107.68a25.9,25.9,0,0,0-47.15,9.43,17.08,17.08,0,0,0-27.7,3.35A13.49,13.49,0,1,0,180,143.65c0,.25,0,.5,0,.75A13.48,13.48,0,0,0,205.23,151a9,9,0,0,0,3.89.91,8.91,8.91,0,0,0,4.47-1.23,17.09,17.09,0,0,0,32.92-4.59,25.88,25.88,0,0,0,6.31-3.49,26.6,26.6,0,0,0,34.58,9.89,13.47,13.47,0,0,0,24.76-3.7,17.05,17.05,0,0,0,24.48-2.49,13.27,13.27,0,0,0,4.93.95,13.49,13.49,0,0,0,0-27Zm-126.81,15.5-.06,0c.1-.22.2-.43.29-.66l.1.17C215,135.4,214.87,135.58,214.76,135.76Z"/><path class="cls-4" d="M294.48,122.87a10.62,10.62,0,0,1-.56,4.35,11.22,11.22,0,0,1-18.7,3.83,11.45,11.45,0,0,1-2.34-3.82,10.69,10.69,0,0,1-.56-4.36,11.67,11.67,0,0,0,3.59,7.49,11,11,0,0,0,15,0A11.67,11.67,0,0,0,294.48,122.87Z"/><path class="cls-4" d="M242.38,121.34a14.6,14.6,0,0,1-.78,6,15.73,15.73,0,0,1-3.23,5.27,15.49,15.49,0,0,1-22.57,0,15.82,15.82,0,0,1-3.24-5.27,14.76,14.76,0,0,1-.77-6,16.08,16.08,0,0,0,5,10.34,15.13,15.13,0,0,0,20.67,0A16.05,16.05,0,0,0,242.38,121.34Z"/></g></g></svg>