<svg xmlns="http://www.w3.org/2000/svg" viewBox="0 0 723.69 201.67"><defs><style>.cls-1{fill:#e4eff4;}.cls-2{fill:#9ed7f2;}.cls-3{fill:#fff;}.cls-4{fill:#e7f6fd;}.cls-5,.cls-6{fill:#d6e8f2;}.cls-6{opacity:0.3;}</style></defs><title>Asset 3clouds</title><g id="Layer_2" data-name="Layer 2"><g id="OBJECTS"><rect class="cls-1" y="0.06" width="723.69" height="140.44"/><path class="cls-2" d="M670.07,54.44c-.15,0-.3,0-.45,0A26.3,26.3,0,0,0,647,33.15,26.24,26.24,0,0,0,646.15,0H481.62a35.45,35.45,0,0,0-16.26,24.89,26.39,26.39,0,0,0-14.21,16.45c-.36,0-.72-.05-1.08-.05a11,11,0,0,0,0,22.07,10.9,10.9,0,0,0,4-.75,26.25,26.25,0,0,0,32.11,10.56,34.77,34.77,0,0,0,62.54,14.88,56.16,56.16,0,0,0,89.15-3.21,26.07,26.07,0,0,0,26.86-9.73,11,11,0,1,0,5.37-20.67Z"/><path class="cls-3" d="M647,33.15A26.24,26.24,0,0,0,646.15,0H481.62a35.45,35.45,0,0,0-16.26,24.89,26.39,26.39,0,0,0-14.21,16.45c-.36,0-.72-.05-1.08-.05a11,11,0,0,0-10.84,9H668.5A26.3,26.3,0,0,0,647,33.15Z"/><path class="cls-4" d="M543.87,41.21a14.49,14.49,0,1,0,14.49-14.49A14.49,14.49,0,0,0,543.87,41.21Z"/><circle class="cls-4" cx="570.78" cy="57.77" r="16.57" transform="translate(298.01 562.47) rotate(-67.39)"/><path class="cls-4" d="M449,36.16a17.4,17.4,0,0,1,22,1.2A20.8,20.8,0,0,1,497.11,27.2a17.49,17.49,0,0,1,29.35,4,30.34,30.34,0,0,1,7.17-2.72,17.48,17.48,0,0,1,33.31-6.67,21.83,21.83,0,0,1,14.24-5.28,22.15,22.15,0,0,1,5.19.64,30.11,30.11,0,0,1,47.56-3A17.49,17.49,0,0,1,662.05,35,21.91,21.91,0,0,1,671.33,47a17.49,17.49,0,0,1-3.43,34.65,17.76,17.76,0,0,1-2.94-.26,17.48,17.48,0,0,1-33.56,3.83c-.41,0-.82.06-1.23.06a17.4,17.4,0,0,1-9.39-2.75,25.36,25.36,0,0,1-45.2-23,22.25,22.25,0,0,1-4.81-1.88.2.2,0,0,1,0,.07,30.13,30.13,0,0,1-60.25,0c0-.62,0-1.23.06-1.85h-.06a18.21,18.21,0,0,1-2.1-.14,20.86,20.86,0,0,1-34.73,4.39,17.53,17.53,0,0,1-12.2,7.48A17.49,17.49,0,1,1,449,36.16Z"/><path class="cls-5" d="M583,47.75a15.82,15.82,0,0,0,4.87,10.17,14.88,14.88,0,0,0,20.33,0,15.69,15.69,0,0,0,4.69-9.13c-.18-.17-.4-.31-.57-.49a13.56,13.56,0,0,1-2.82-4.61,12.76,12.76,0,0,1-.68-5.25,14,14,0,0,0,4.33,9,13.22,13.22,0,0,0,18.07,0,14,14,0,0,0,4.33-9,12.59,12.59,0,0,1-.68,5.25A13.43,13.43,0,0,1,613.08,49a15,15,0,0,1-.8,4.68,15.64,15.64,0,0,1-3.18,5.19,15.19,15.19,0,0,1-25.38-5.19A14.23,14.23,0,0,1,583,47.75Z"/><path class="cls-5" d="M523.73,44.61a14.42,14.42,0,0,0,.76,5.91,15.53,15.53,0,0,0,3.18,5.18,15.25,15.25,0,0,0,22.2,0,15.74,15.74,0,0,0,3.18-5.19,14.42,14.42,0,0,0,.76-5.91,15.78,15.78,0,0,1-4.88,10.16,14.89,14.89,0,0,1-20.33,0A15.77,15.77,0,0,1,523.73,44.61Z"/><path class="cls-2" d="M228.57,43.5A27.29,27.29,0,0,0,202.21,18,55.62,55.62,0,0,0,187.89,0H44.29a36.41,36.41,0,0,0-3,3.86A35.21,35.21,0,0,0,40.06,0H0V106a34.1,34.1,0,0,0,29.38-2.49,34.15,34.15,0,0,0,47.31-2.69,34.05,34.05,0,0,0,24,7.77c1-.07,2-.2,3-.36a34.19,34.19,0,0,0,64.12-12,55.71,55.71,0,0,0,31.48-23.78,26.73,26.73,0,0,0,3.8,0A27.28,27.28,0,0,0,228.57,43.5Z"/><path class="cls-2" d="M228.57,43.5A27.29,27.29,0,0,0,202.21,18,55.62,55.62,0,0,0,187.89,0H44.29a36.41,36.41,0,0,0-3,3.86A35.21,35.21,0,0,0,40.06,0H0V106a34.1,34.1,0,0,0,29.38-2.49,34.15,34.15,0,0,0,47.31-2.69,34.05,34.05,0,0,0,24,7.77c1-.07,2-.2,3-.36a34.19,34.19,0,0,0,64.12-12,55.71,55.71,0,0,0,31.48-23.78,26.73,26.73,0,0,0,3.8,0A27.28,27.28,0,0,0,228.57,43.5Z"/><path class="cls-3" d="M0,55,228.07,39.92A27.29,27.29,0,0,0,202.21,18,55.62,55.62,0,0,0,187.89,0H44.29a36.41,36.41,0,0,0-3,3.86A35.21,35.21,0,0,0,40.06,0H0Z"/><path class="cls-4" d="M234.94,54A30.42,30.42,0,0,0,203.2,25.64a24.33,24.33,0,0,0-44.09-10.3,24.31,24.31,0,0,0-25.39,8.83,22.12,22.12,0,0,0-30.09,3.32,20.69,20.69,0,0,0,.09-3.7A21.44,21.44,0,0,0,62.54,17a30.4,30.4,0,0,0-37.85-4.31A30.36,30.36,0,0,0,2.6,5.13c-.88.06-1.75.16-2.6.29V65.55a30.31,30.31,0,0,0,6.62.29c1-.06,1.91-.18,2.85-.33A22.15,22.15,0,0,0,52,66.71c.74-.29,1.46-.62,2.18-1A22.11,22.11,0,0,0,89.4,67.45l.23.22c0,.6,0,1.2,0,1.82A17.36,17.36,0,0,0,120.73,79a24.33,24.33,0,0,0,35.48,19.43,30.36,30.36,0,0,0,47.2-12,30.74,30.74,0,0,0,3.18,0A30.43,30.43,0,0,0,234.94,54Z"/><path class="cls-5" d="M50.22,41.27a8.51,8.51,0,0,0,1.26,4.9,13.52,13.52,0,0,0,4.21,4.09c3.61,2.32,8.82,3.45,14,3.12s10.14-2.16,13.41-4.93a13.39,13.39,0,0,0,3.63-4.61,8.59,8.59,0,0,0,.61-5c-.21,3.33-2.17,6.55-5.44,8.93A25.1,25.1,0,0,1,56.79,49.4C53.23,47.47,50.87,44.54,50.22,41.27Z"/><path class="cls-5" d="M141.4,62.13a11.14,11.14,0,0,0,1.45,6,16,16,0,0,0,4.77,5c4.08,2.84,10,4.25,15.75,3.87s11.43-2.55,15.1-5.91a15.91,15.91,0,0,0,4.07-5.57,11.07,11.07,0,0,0,.65-6.09,15,15,0,0,1-6.08,10.8A26.54,26.54,0,0,1,148.85,72,14.93,14.93,0,0,1,141.4,62.13Z"/><path class="cls-5" d="M18.76,36.07a14,14,0,0,1-4.12,9.58A15.2,15.2,0,0,1,0,49.47V51a15.57,15.57,0,0,0,5.09.51A15.31,15.31,0,0,0,15.6,46.45a14,14,0,0,0,2.78-4.94A12.27,12.27,0,0,0,18.76,36.07Z"/><path class="cls-2" d="M553,43.8a16.72,16.72,0,0,0-7.53,1.8,25.05,25.05,0,0,0-26.94-9.33,25.2,25.2,0,0,0-37.47-16.52A25.24,25.24,0,0,0,465.65,0H189.78a40,40,0,0,0-1.46,10.73,40.49,40.49,0,0,0,1.08,9.15,25.19,25.19,0,0,0-36.16,17.25,25.05,25.05,0,0,0-26.94,9.33,16.78,16.78,0,1,0,0,30,25.17,25.17,0,0,0,34.56,5.8A25.17,25.17,0,0,0,200,89.62a25.21,25.21,0,0,0,43.26,2.92A25.11,25.11,0,0,0,270,89.7a59.9,59.9,0,0,0,93.8,14.24,25.14,25.14,0,0,0,33.93-19.22,25.12,25.12,0,0,0,30.82,7,25.21,25.21,0,0,0,43.26-2.91,25.19,25.19,0,0,0,39.16-7.4,25.16,25.16,0,0,0,34.56-5.81,16.59,16.59,0,0,0,7.53,1.8,16.78,16.78,0,0,0,0-33.56Z"/><path class="cls-3" d="M553,43.8a16.72,16.72,0,0,0-7.53,1.8,25.05,25.05,0,0,0-26.94-9.33,25.2,25.2,0,0,0-37.47-16.52A25.24,25.24,0,0,0,465.65,0H189.78a39.76,39.76,0,0,0-.38,19.88,25.19,25.19,0,0,0-36.16,17.25,25.05,25.05,0,0,0-26.94,9.33A16.74,16.74,0,0,0,102,60.6H569.79v0A16.78,16.78,0,0,0,553,43.8Z"/><path class="cls-4" d="M544.93,33.32a24.73,24.73,0,0,0-15.71,5.6,24.71,24.71,0,0,0-24.17-4.09A31.25,31.25,0,0,0,456.21,18.2a24.77,24.77,0,0,0-31.09-7,24.81,24.81,0,0,0-30.63-5.47A31.72,31.72,0,0,0,391.16,0H340.53a29.59,29.59,0,0,0-2.15,3.37A31.1,31.1,0,0,0,332,0H273.61A25.2,25.2,0,0,0,273,5.53a24.48,24.48,0,0,0,.14,2.58,22.44,22.44,0,0,0-7.73,7.18A31.46,31.46,0,0,0,255.87,0H214.49a31.41,31.41,0,0,0-8.2,11.39,18.61,18.61,0,0,0-23.8,14.4A31.27,31.27,0,0,0,137.28,40.1a20.12,20.12,0,0,0-30.54,12c-.21,0-.41-.06-.62-.06a14,14,0,1,0,10.76,22.77,20.1,20.1,0,0,0,24-3.88,31.22,31.22,0,0,0,21.43,12.57A31.3,31.3,0,0,0,221.82,85a31.2,31.2,0,0,0,10.75-5.36,31.28,31.28,0,0,0,55.71,5l1.05.3c0,.43-.07.86-.07,1.3a24.85,24.85,0,0,0,48.05,8.91,31,31,0,0,0,32-14.84A15.61,15.61,0,0,0,395.85,77a31.25,31.25,0,0,0,45-6.49h.24a15.67,15.67,0,0,0,15.47,13.34,15.33,15.33,0,0,0,5-.88,24.81,24.81,0,0,0,41.4-2.37A24.76,24.76,0,0,0,513.51,83l.3,0a15.7,15.7,0,0,0,30.82,0l.3,0a24.86,24.86,0,1,0,0-49.72Z"/><path class="cls-5" d="M352.77,26.72a13.6,13.6,0,0,0,.72,5.6A14.36,14.36,0,0,0,367,41.78a14.44,14.44,0,0,0,10.52-4.55,14.76,14.76,0,0,0,3-4.91,13.6,13.6,0,0,0,.72-5.6,14.94,14.94,0,0,1-4.62,9.63,14.1,14.1,0,0,1-19.26,0A15,15,0,0,1,352.77,26.72Z"/><path class="cls-5" d="M297.36,50a18.53,18.53,0,0,0,1,7.57,20,20,0,0,0,4.07,6.63,19.51,19.51,0,0,0,28.4,0,19.81,19.81,0,0,0,4.07-6.63,18.53,18.53,0,0,0,1-7.57,20.18,20.18,0,0,1-6.24,13,19,19,0,0,1-26,0A20.24,20.24,0,0,1,297.36,50Z"/><path class="cls-5" d="M191.37,43.12a18.2,18.2,0,0,0,1,7.57,19.78,19.78,0,0,0,4.06,6.63,19.49,19.49,0,0,0,28.4,0,19.81,19.81,0,0,0,4.07-6.63,18.53,18.53,0,0,0,1-7.57,20.21,20.21,0,0,1-6.23,13,19,19,0,0,1-26,0A20.14,20.14,0,0,1,191.37,43.12Z"/><path class="cls-5" d="M444.35,35.72a13.34,13.34,0,0,0,.71,5.51,14.15,14.15,0,0,0,23.61,4.82,14.41,14.41,0,0,0,3-4.82,13.33,13.33,0,0,0,.7-5.51,14.64,14.64,0,0,1-4.53,9.46,13.83,13.83,0,0,1-18.92,0A14.64,14.64,0,0,1,444.35,35.72Z"/><path class="cls-6" d="M10,65l.15-.19,0-.05c.13-.17.26-.34.41-.51l.06-.07.42-.44.11-.1.28-.26A9.21,9.21,0,0,1,24,58.9a11.43,11.43,0,0,1,1.53-.63,14.39,14.39,0,0,1,11.79-7.53A12.39,12.39,0,0,1,38.7,50a10.77,10.77,0,0,1,1.85-.68,11.66,11.66,0,0,1,3-.4h0a11.52,11.52,0,0,1,3.54.58A9.09,9.09,0,0,1,48.47,48c0-.31-.07-.62-.09-.94s0-.71,0-1.08A18.47,18.47,0,0,1,66.82,27.48c.44,0,.89,0,1.33.05a19.35,19.35,0,0,1,3.82.69A18.46,18.46,0,0,1,95.86,12.87a16.85,16.85,0,0,1,1.72.64,18.52,18.52,0,0,1,5.92,4.09,29.22,29.22,0,0,1,2.94-2.39,27.28,27.28,0,0,1,13.15-4.9c.44-.05.88-.08,1.33-.1s.9,0,1.36,0h0a27.4,27.4,0,0,1,13.17,3.36c.65.36,1.29.74,1.91,1.15a30.34,30.34,0,0,1,2.72,2.06,28.72,28.72,0,0,1,3.12,3.12,29.12,29.12,0,0,1,3.13,4.47,27.68,27.68,0,0,1,2.53,6.24c.63-.06,1.28-.1,1.93-.1h0a18.6,18.6,0,0,1,4,.43c.43.1.85.21,1.27.33a18.5,18.5,0,0,1,2.42.91q.58.27,1.14.57a18.59,18.59,0,0,1,7.78,8.16,11.32,11.32,0,0,1,1.94-.53,10.81,10.81,0,0,1,2.06-.19h0a11.67,11.67,0,0,1,2.14.2A11.16,11.16,0,0,1,180,44.07a10.11,10.11,0,0,1,.71.88,11.34,11.34,0,0,1,1,1.68,14.24,14.24,0,0,1,5.64,1.94,11.37,11.37,0,0,1,1.31-.09,11.61,11.61,0,0,1,10.77,7.29c.09.24.17.48.25.72a11.43,11.43,0,0,1,2.59.79c.26,0,.53,0,.8,0a11.52,11.52,0,0,1,3.44.55,11.42,11.42,0,0,1,17,9.94c0,.19,0,.37,0,.55s0,.37,0,.55h0A7.7,7.7,0,0,1,222,73.47a11.4,11.4,0,0,1-9.86,5.69H212a7.21,7.21,0,0,1-14.15,0l-.06,0h-.09a11.31,11.31,0,0,1-1.55-.12,11.58,11.58,0,0,1-9.95,5.67,11.43,11.43,0,0,1-4.9-1.1,11.16,11.16,0,0,1-3.25-1,11.58,11.58,0,0,1-19.4.51,11.54,11.54,0,0,1-14.16-3.2,11.58,11.58,0,0,1-11.41,9.62,11.42,11.42,0,0,1-4.18-.79,27.49,27.49,0,0,1-41-3.32,14.33,14.33,0,0,1-14.57-1.65,11.53,11.53,0,0,1-15,3.28,14.35,14.35,0,0,1-21.71-6.71,11.71,11.71,0,0,1-.69-1l-.88-.16a11.52,11.52,0,0,1-15-2.72l-.27,0c-.23,0-.45,0-.68,0A7.77,7.77,0,0,1,16.4,77a7.67,7.67,0,0,1-2.21-.33,6.31,6.31,0,0,1-3.6,1.14A6.42,6.42,0,0,1,10,65Z"/><path class="cls-2" d="M723.69,8.4a50,50,0,0,0-39.87,33.81c-.84-.06-1.67-.13-2.52-.13a37.09,37.09,0,0,0-29.22,14.25,23.68,23.68,0,1,0-8,46,23.9,23.9,0,0,0,7.21-1.12A37.12,37.12,0,0,0,709.93,103a50.38,50.38,0,0,0,13.76,4.24Z"/><path class="cls-3" d="M723.69,8.4a50,50,0,0,0-39.87,33.81c-.84-.06-1.67-.13-2.52-.13a37.09,37.09,0,0,0-29.22,14.25,23.63,23.63,0,0,0-31.64,22.29c0,.34,0,.67,0,1h103.2Z"/><path class="cls-4" d="M723.69,43a28.62,28.62,0,0,0-8.39,8.34,29.3,29.3,0,0,0-41.19,4.74,19.06,19.06,0,0,0-4.43-.55,18.81,18.81,0,0,0-16.57,9.9,18.76,18.76,0,0,0-20.46,2.26,14.83,14.83,0,1,0-2.81,26.13,18.76,18.76,0,0,0,26.93,2.73A14.81,14.81,0,0,0,684,100.62a29.25,29.25,0,0,0,38-10.88c.53.4,1.07.78,1.63,1.14Z"/><path class="cls-5" d="M676.22,68.05a11.79,11.79,0,0,0,.62,4.8,12.62,12.62,0,0,0,2.58,4.2,12.34,12.34,0,0,0,18,0,12.68,12.68,0,0,0,2.58-4.2,11.78,11.78,0,0,0,.61-4.8,12.81,12.81,0,0,1-4,8.24,12.07,12.07,0,0,1-16.48,0A12.78,12.78,0,0,1,676.22,68.05Z"/><path class="cls-2" d="M340.57,124.35c-.33,0-.65,0-1,.05a24,24,0,0,0-12.93-15A32.2,32.2,0,0,0,282.61,84.3a23.86,23.86,0,0,0-37.48-13.84,31.61,31.61,0,0,0-55.3,9.88A23.89,23.89,0,0,0,161.6,117,23.89,23.89,0,0,0,141,136.32l-.42,0a10,10,0,0,0,0,20.06,9.91,9.91,0,0,0,4.88-1.27,23.68,23.68,0,0,0,24.42,8.84,51,51,0,0,0,81,2.91,31.59,31.59,0,0,0,56.84-13.52A23.85,23.85,0,0,0,337,143.73a10,10,0,1,0,3.61-19.38Z"/><path class="cls-3" d="M142.05,132.55H350.43a10,10,0,0,0-9.86-8.2c-.33,0-.65,0-1,.05a24,24,0,0,0-12.93-15A32.2,32.2,0,0,0,282.61,84.3a23.86,23.86,0,0,0-37.48-13.84,31.61,31.61,0,0,0-55.3,9.88A23.89,23.89,0,0,0,161.6,117,23.9,23.9,0,0,0,142.05,132.55Z"/><path class="cls-4" d="M255.32,124.27a13.17,13.17,0,1,1-13.17-13.17A13.17,13.17,0,0,1,255.32,124.27Z"/><circle class="cls-4" cx="230.86" cy="139.33" r="15.06" transform="translate(-35.82 99.46) rotate(-22.61)"/><path class="cls-4" d="M341.55,119.68a15.84,15.84,0,0,0-20,1.09,18.89,18.89,0,0,0-23.76-9.22,15.88,15.88,0,0,0-26.67,3.63,27.25,27.25,0,0,0-6.52-2.47,15.88,15.88,0,0,0-30.28-6.06,19.65,19.65,0,0,0-17.66-4.22,27.36,27.36,0,0,0-43.23-2.7,15.9,15.9,0,0,0-25.56,18.88,19.9,19.9,0,0,0-8.43,11,15.9,15.9,0,0,0,3.12,31.5,15.69,15.69,0,0,0,2.67-.24,15.89,15.89,0,0,0,30.51,3.48c.37,0,.74.05,1.11.05a15.77,15.77,0,0,0,8.54-2.5A23,23,0,0,0,226.5,141a19.65,19.65,0,0,0,4.37-1.71s0,.05,0,.07a27.38,27.38,0,1,0,54.76,0c0-.57,0-1.12-.06-1.68h.06a17.18,17.18,0,0,0,1.91-.12,19,19,0,0,0,31.57,4,15.88,15.88,0,0,0,11.08,6.79,15.9,15.9,0,1,0,11.37-28.63Z"/><path class="cls-5" d="M219.79,130.22a14.35,14.35,0,0,1-4.42,9.24,13.55,13.55,0,0,1-18.48,0,14.16,14.16,0,0,1-4.26-8.3c.16-.16.36-.28.51-.45a12.45,12.45,0,0,0,2.57-4.19,11.64,11.64,0,0,0,.61-4.77,12.78,12.78,0,0,1-3.93,8.21A12,12,0,0,1,176,130a12.74,12.74,0,0,1-3.94-8.21,11.64,11.64,0,0,0,.61,4.77,12.45,12.45,0,0,0,2.57,4.19,12.22,12.22,0,0,0,17.21.63,13.34,13.34,0,0,0,.73,4.26,14.21,14.21,0,0,0,2.89,4.71,13.84,13.84,0,0,0,20.17,0,14.15,14.15,0,0,0,2.89-4.72A13,13,0,0,0,219.79,130.22Z"/><path class="cls-5" d="M273.62,127.36a12.9,12.9,0,0,1-.69,5.38,14,14,0,0,1-2.89,4.71,13.84,13.84,0,0,1-20.17,0,14,14,0,0,1-2.89-4.71,13.06,13.06,0,0,1-.69-5.38,14.34,14.34,0,0,0,4.43,9.24,13.52,13.52,0,0,0,18.48,0A14.33,14.33,0,0,0,273.62,127.36Z"/><path class="cls-2" d="M723.69,72.75a31.07,31.07,0,0,0-11.53,17.58,33.55,33.55,0,0,0-36.73-13.5,31.08,31.08,0,0,0-58.63-5.28,22.21,22.21,0,0,0-36.67,14.22,50.72,50.72,0,0,0-14.27,17.44,24.79,24.79,0,1,0,2.6,49.5,50.72,50.72,0,0,0,28.61,21.61,31.08,31.08,0,0,0,58.28,10.88c.91.14,1.83.26,2.76.33a31,31,0,0,0,21.83-7.07,31,31,0,0,0,43,2.45l.75.41Z"/><path class="cls-2" d="M723.69,72.75a31.07,31.07,0,0,0-11.53,17.58,33.55,33.55,0,0,0-36.73-13.5,31.08,31.08,0,0,0-58.63-5.28,22.21,22.21,0,0,0-36.67,14.22,50.72,50.72,0,0,0-14.27,17.44,24.79,24.79,0,1,0,2.6,49.5,50.72,50.72,0,0,0,28.61,21.61,31.08,31.08,0,0,0,58.28,10.88c.91.14,1.83.26,2.76.33a31,31,0,0,0,21.83-7.07,31,31,0,0,0,43,2.45l.75.41Z"/><path class="cls-3" d="M723.69,72.75a31.07,31.07,0,0,0-11.53,17.58,33.55,33.55,0,0,0-36.73-13.5,31.08,31.08,0,0,0-58.63-5.28,22.21,22.21,0,0,0-36.67,14.22,50.72,50.72,0,0,0-14.27,17.44,24.79,24.79,0,0,0-23.51,19.89l181.34,12Z"/><path class="cls-4" d="M723.69,96.44a27.57,27.57,0,0,0-30.89,5.79,19.49,19.49,0,0,0-37.43,6.21,19.76,19.76,0,0,0,.08,3.36,20.11,20.11,0,0,0-27.35-3,22,22,0,0,0-23.07-8A22.12,22.12,0,0,0,565,110.13a27.64,27.64,0,0,0-3.08,55.19c1,.06,1.94.07,2.9,0a27.58,27.58,0,0,0,42.89,10.88,22.12,22.12,0,0,0,32.25-17.67A15.78,15.78,0,0,0,668.16,150c0-.56,0-1.11,0-1.66a1.89,1.89,0,0,0,.2-.2,20.11,20.11,0,0,0,32-1.55c.65.32,1.3.62,2,.88a20.05,20.05,0,0,0,21.3,13.84Z"/><path class="cls-5" d="M704,124.33a7.78,7.78,0,0,1-1.15,4.45A12.26,12.26,0,0,1,699,132.5a23,23,0,0,1-24.87-1.65,12,12,0,0,1-3.3-4.19,7.65,7.65,0,0,1-.55-4.56,11.15,11.15,0,0,0,4.94,8.11A22.81,22.81,0,0,0,698,131.72,11.17,11.17,0,0,0,704,124.33Z"/><path class="cls-5" d="M621.12,143.29a10.05,10.05,0,0,1-1.32,5.41,14.43,14.43,0,0,1-4.33,4.54c-3.71,2.58-9.06,3.86-14.31,3.51s-10.39-2.32-13.73-5.37a14.43,14.43,0,0,1-3.7-5.06,10.12,10.12,0,0,1-.59-5.54,13.59,13.59,0,0,0,5.53,9.82,24.13,24.13,0,0,0,25.68,1.7A13.59,13.59,0,0,0,621.12,143.29Z"/><path class="cls-2" d="M641.7,127.41a15.14,15.14,0,0,0-6.85,1.64,22.74,22.74,0,0,0-24.48-8.48,22.89,22.89,0,0,0-32.87-15.68,36.47,36.47,0,0,0-45.74-43.38,36.5,36.5,0,0,0-62.4-21,54.4,54.4,0,0,0-89.73,25.67,37.15,37.15,0,0,0-3.82-.2A36.48,36.48,0,0,0,343,86.54a22.86,22.86,0,0,0-30.59,18.23,22.91,22.91,0,0,0-34.06,15,22.74,22.74,0,0,0-24.48,8.48,15.26,15.26,0,1,0,0,27.23,22.86,22.86,0,0,0,31.41,5.27,22.87,22.87,0,0,0,35.59,6.73,22.91,22.91,0,0,0,39.32,2.65,22.84,22.84,0,0,0,28-6.33,22.93,22.93,0,0,0,22.58,19,22.68,22.68,0,0,0,8.26-1.56,54.43,54.43,0,0,0,85.25-12.94,22.81,22.81,0,0,0,24.25,2.58,22.91,22.91,0,0,0,39.31-2.65,22.88,22.88,0,0,0,35.6-6.73,22.86,22.86,0,0,0,31.41-5.27,15.25,15.25,0,1,0,6.85-28.87Z"/><path class="cls-3" d="M656.91,141.9a15.21,15.21,0,0,0-22.06-12.85,22.74,22.74,0,0,0-24.48-8.48,22.89,22.89,0,0,0-32.87-15.68,36.47,36.47,0,0,0-45.74-43.38,36.5,36.5,0,0,0-62.4-21,54.4,54.4,0,0,0-89.73,25.67,37.15,37.15,0,0,0-3.82-.2A36.48,36.48,0,0,0,343,86.54a22.86,22.86,0,0,0-30.59,18.23,22.89,22.89,0,0,0-34.06,15,22.74,22.74,0,0,0-24.48,8.48,15.23,15.23,0,0,0-22.1,13.61v0Z"/><path class="cls-4" d="M653.19,134.12c-.19,0-.37,0-.56.06a18.3,18.3,0,0,0-27.76-10.92,28.43,28.43,0,0,0-41.09-13,16.89,16.89,0,0,0-16.61-13.84,16.62,16.62,0,0,0-5,.76,28.46,28.46,0,0,0-53.72,3.54,20.46,20.46,0,0,0-7-6.53,22.59,22.59,0,0,0-44-9.31,28.29,28.29,0,0,0-15.35,5,28.47,28.47,0,0,0-51,2.18,22.56,22.56,0,0,0-27.84,5A22.54,22.54,0,0,0,335,103.36a28.4,28.4,0,0,0-44.39,15.11,22.45,22.45,0,0,0-22,3.72,22.59,22.59,0,1,0-14.29,40.1h.28a14.27,14.27,0,0,0,28,0h.28a22.42,22.42,0,0,0,9.67-2.2,22.54,22.54,0,0,0,37.62,2.16,14.05,14.05,0,0,0,4.5.8,14.24,14.24,0,0,0,14.06-12.12l.22,0a28.4,28.4,0,0,0,40.87,5.9,14.18,14.18,0,0,0,24.08,3,28.42,28.42,0,0,0,24.43,13.9,29,29,0,0,0,4.69-.41,22.59,22.59,0,0,0,43.67-8.1c0-.4,0-.79-.06-1.18.32-.09.64-.17.95-.27a28.43,28.43,0,0,0,50.64-4.56,28.2,28.2,0,0,0,9.77,4.87,28.45,28.45,0,0,0,54.13-1.35,28.47,28.47,0,0,0,19.48-11.44,18.28,18.28,0,0,0,21.77,3.54,12.68,12.68,0,1,0,9.78-20.71Z"/><path class="cls-5" d="M429,111.1a12.55,12.55,0,0,1-.65,5.1,13.48,13.48,0,0,1-2.74,4.46,13.12,13.12,0,0,1-19.11,0,13.48,13.48,0,0,1-2.74-4.46,12.22,12.22,0,0,1-.65-5.1,13.62,13.62,0,0,0,4.19,8.76,12.83,12.83,0,0,0,17.51,0A13.62,13.62,0,0,0,429,111.1Z"/><path class="cls-5" d="M479.37,132.22a16.74,16.74,0,0,1-.88,6.88,18.05,18.05,0,0,1-3.7,6,17.71,17.71,0,0,1-25.81,0,18.05,18.05,0,0,1-3.7-6,16.74,16.74,0,0,1-.88-6.88A18.39,18.39,0,0,0,450.07,144a17.32,17.32,0,0,0,23.64,0A18.33,18.33,0,0,0,479.37,132.22Z"/><path class="cls-5" d="M575.71,126a16.72,16.72,0,0,1-.88,6.88,18.2,18.2,0,0,1-3.7,6,17.73,17.73,0,0,1-25.81,0,18.2,18.2,0,0,1-3.7-6,16.72,16.72,0,0,1-.88-6.88,18.39,18.39,0,0,0,5.67,11.82,17.29,17.29,0,0,0,23.64,0A18.33,18.33,0,0,0,575.71,126Z"/><path class="cls-5" d="M345.77,119.29a12.05,12.05,0,0,1-.64,5,13,13,0,0,1-2.69,4.39,12.9,12.9,0,0,1-18.77,0,13.21,13.21,0,0,1-2.69-4.39,12.05,12.05,0,0,1-.64-5,13.36,13.36,0,0,0,4.12,8.6,12.59,12.59,0,0,0,17.19,0A13.31,13.31,0,0,0,345.77,119.29Z"/><path class="cls-6" d="M723.69,136.27a13,13,0,0,0-7.93-3.33,9,9,0,0,0-1.29-.72,9.74,9.74,0,0,0-1.69-.62,10.31,10.31,0,0,0-2.75-.36,10.44,10.44,0,0,0-3.22.52,8.18,8.18,0,0,0-1.22-1.35c0-.28.06-.56.08-.85s0-.65,0-1a16.79,16.79,0,0,0-16.79-16.78c-.4,0-.81,0-1.2,0a17.37,17.37,0,0,0-3.48.63,16.78,16.78,0,0,0-16.64-14.74,17,17,0,0,0-5.07.78,16.36,16.36,0,0,0-1.57.59,16.79,16.79,0,0,0-5.38,3.72,25.38,25.38,0,0,0-2.67-2.18A25,25,0,0,0,641,96.19c-.4,0-.81-.07-1.21-.09s-.82,0-1.23,0h0a25,25,0,0,0-8.26,1.39,25.37,25.37,0,0,0-3.72,1.66c-.59.32-1.17.67-1.73,1a24,24,0,0,0-2.47,1.88,25.39,25.39,0,0,0-5.68,6.89,24.51,24.51,0,0,0-2.3,5.68,17.14,17.14,0,0,0-1.76-.1,16.66,16.66,0,0,0-3.62.4,11.43,11.43,0,0,0-1.15.3,16.55,16.55,0,0,0-2.2.82c-.35.16-.7.34-1,.52a16.9,16.9,0,0,0-7.07,7.42,11.76,11.76,0,0,0-1.76-.49,10.6,10.6,0,0,0-1.88-.17h0a10.37,10.37,0,0,0-1.94.18,10.53,10.53,0,0,0-5,2.42,12.28,12.28,0,0,0-1,1c-.22.26-.44.52-.64.8a10.7,10.7,0,0,0-.92,1.53,13,13,0,0,0-5.12,1.76,11.89,11.89,0,0,0-1.2-.08,10.53,10.53,0,0,0-9.78,6.63c-.09.22-.16.44-.23.66a10.31,10.31,0,0,0-2.35.71l-.73,0a10.46,10.46,0,0,0-3.13.49,10.38,10.38,0,0,0-15.48,9c0,.17,0,.33,0,.5s0,.33,0,.5h0a7,7,0,0,0,1.41,4.2,10.37,10.37,0,0,0,9,5.17h.12a6.55,6.55,0,0,0,12.86,0l.05,0h.09a11,11,0,0,0,1.41-.11,15,15,0,0,0,16.45,3.26,10.53,10.53,0,0,0,17.63.46,10.49,10.49,0,0,0,12.87-2.91,10.52,10.52,0,0,0,10.37,8.74,10.65,10.65,0,0,0,3.8-.71,25,25,0,0,0,37.24-3,13.07,13.07,0,0,0,13.25-1.5,10.5,10.5,0,0,0,8.48,4.31,10.37,10.37,0,0,0,5.11-1.33,13.05,13.05,0,0,0,19.74-6.1c.22-.31.43-.62.62-1,.27,0,.54-.08.81-.14a10.43,10.43,0,0,0,5.43,1.52c.19,0,.37,0,.56,0Z"/><path class="cls-2" d="M164.2,136.75A21.38,21.38,0,0,0,157,138a33.68,33.68,0,0,0-26.56-13c-.77,0-1.53.06-2.29.11a45.43,45.43,0,0,0-87.57,4.62c-.35,0-.68-.05-1-.05a21.51,21.51,0,0,0-20,29.43,14.14,14.14,0,1,0,9.15,26.7,20.25,20.25,0,0,0,38.95-4.52,45.24,45.24,0,0,0,36.79-1,33.74,33.74,0,0,0,53.25-1.62,21.53,21.53,0,1,0,6.56-42Z"/><path class="cls-3" d="M1.62,159.2H185.68c0-.34,0-.68,0-1a23.81,23.81,0,0,0-31.85-22.44,37.31,37.31,0,0,0-29.4-14.33c-.86,0-1.7.07-2.54.13a50.3,50.3,0,0,0-97,5.11c-.38,0-.75-.06-1.14-.06A23.81,23.81,0,0,0,1.68,159.18Z"/><circle class="cls-4" cx="59.59" cy="155.23" r="12.09"/><path class="cls-4" d="M182.12,146.07a13.45,13.45,0,0,0-7.49,2.27,17,17,0,0,0-18.6-2.05,17,17,0,0,0-19.08-8.5,26.63,26.63,0,0,0-37.44-4.31,25.9,25.9,0,0,0-47.15,9.44,17.07,17.07,0,0,0-27.7,3.34,13.5,13.5,0,1,0-4.1,23.2c0,.25,0,.5,0,.75a13.47,13.47,0,0,0,25.24,6.57,8.81,8.81,0,0,0,8.37-.31,17.09,17.09,0,0,0,32.92-4.6,25.85,25.85,0,0,0,6.31-3.48A26.58,26.58,0,0,0,128,178.27a13.46,13.46,0,0,0,24.75-3.69,17.09,17.09,0,0,0,24.49-2.49,13.48,13.48,0,1,0,4.93-26ZM55.31,161.56a.18.18,0,0,1-.07-.05c.1-.21.21-.43.3-.65a1.4,1.4,0,0,0,.1.16Q55.46,161.29,55.31,161.56Z"/><path class="cls-5" d="M135,148.67a10.64,10.64,0,0,1-.55,4.36,11.55,11.55,0,0,1-2.35,3.82,11.23,11.23,0,0,1-16.35,0,11.36,11.36,0,0,1-2.34-3.82,10.48,10.48,0,0,1-.56-4.36,11.64,11.64,0,0,0,3.59,7.49,11,11,0,0,0,15,0A11.59,11.59,0,0,0,135,148.67Z"/><path class="cls-5" d="M82.92,147.15a14.4,14.4,0,0,1-.77,6,15.67,15.67,0,0,1-3.23,5.28,15.52,15.52,0,0,1-22.58,0,16,16,0,0,1-3.23-5.28,14.71,14.71,0,0,1-.77-6,16.11,16.11,0,0,0,4.95,10.34,15.14,15.14,0,0,0,20.68,0A16,16,0,0,0,82.92,147.15Z"/></g></g></svg>